{
  "accessors": [
    {
      "bufferView": 2,
      "componentType": 5126,
      "count": 65532,
      "max": [
        148.22496032714844,
        91.53155517578125,
        17.505985260009766
      ],
      "min": [
        -125.05781555175781,
        -75.67179870605469,
        -2.1675195693969727
      ],
      "type": "VEC3"
    },
    {
      "bufferView": 2,
      "byteOffset": 786384,
      "componentType": 5126,
      "count": 65532,
      "max": [
        0.9999997019767761,
        0.9999997615814209,
        1.0
      ],
      "min": [
        -0.9999999403953552,
        -1.0,
        -1.0
      ],
      "type": "VEC3"
    },
    {
      "bufferView": 1,
      "componentType": 5126,
      "count": 65532,
      "max": [
        0.9995841979980469,
        0.9925535917282104
      ],
      "min": [
        0.0001220703125,
        0.0033678009640425444
      ],
      "type": "VEC2"
    },
    {
      "bufferView": 0,
      "componentType": 5125,
      "count": 180873,
      "type": "SCALAR"
    },
    {
      "bufferView": 2,
      "byteOffset": 1572768,
      "componentType": 5126,
      "count": 65532,
      "max": [
        145.05581665039063,
        91.53155517578125,
        20.207786560058594
      ],
      "min": [
        -127.999755859375,
        -74.43083190917969,
        -1.8909597396850586
      ],
      "type": "VEC3"
    },
    {
      "bufferView": 2,
      "byteOffset": 2359152,
      "componentType": 5126,
      "count": 65532,
      "max": [
        0.9999997615814209,
        0.9999998807907104,
        1.0
      ],
      "min": [
        -0.9999979138374329,
        -0.9999999403953552,
        -1.0
      ],
      "type": "VEC3"
    },
    {
      "bufferView": 1,
      "byteOffset": 524256,
      "componentType": 5126,
      "count": 65532,
      "max": [
        0.9996231198310852,
        0.42785635590553284
      ],
      "min": [
        0.0001220703125,
        0.00037374033126980066
      ],
      "type": "VEC2"
    },
    {
      "bufferView": 0,
      "byteOffset": 723492,
      "componentType": 5125,
      "count": 172719,
      "type": "SCALAR"
    },
    {
      "bufferView": 2,
      "byteOffset": 3145536,
      "componentType": 5126,
      "count": 65533,
      "max": [
        123.48767852783203,
        89.90528869628906,
        20.210853576660156
      ],
      "min": [
        -128.56301879882813,
        -75.2977066040039,
        -1.8854475021362305
      ],
      "type": "VEC3"
    },
    {
      "bufferView": 2,
      "byteOffset": 3931932,
      "componentType": 5126,
      "count": 65533,
      "max": [
        1.0,
        0.9999997615814209,
        1.0
      ],
      "min": [
        -1.0,
        -1.0,
        -1.0
      ],
      "type": "VEC3"
    },
    {
      "bufferView": 1,
      "byteOffset": 1048512,
      "componentType": 5126,
      "count": 65533,
      "max": [
        0.9996238350868225,
        0.23522938787937164
      ],
      "min": [
        0.0001220703125,
        0.0003663493553176522
      ],
      "type": "VEC2"
    },
    {
      "bufferView": 0,
      "byteOffset": 1414368,
      "componentType": 5125,
      "count": 172671,
      "type": "SCALAR"
    },
    {
      "bufferView": 2,
      "byteOffset": 4718328,
      "componentType": 5126,
      "count": 65532,
      "max": [
        148.1123809814453,
        90.43728637695313,
        17.431684494018555
      ],
      "min": [
        -127.45599365234375,
        -74.86468505859375,
        -1.884913444519043
      ],
      "type": "VEC3"
    },
    {
      "bufferView": 2,
      "byteOffset": 5504712,
      "componentType": 5126,
      "count": 65532,
      "max": [
        0.9999998211860657,
        0.9999993443489075,
        1.0
      ],
      "min": [
        -0.9999974370002747,
        -0.9999998807907104,
        -1.0
      ],
      "type": "VEC3"
    },
    {
      "bufferView": 1,
      "byteOffset": 1572776,
      "componentType": 5126,
      "count": 65532,
      "max": [
        0.9996111989021301,
        0.5860594511032104
      ],
      "min": [
        0.0001220703125,
        0.0005186988273635507
      ],
      "type": "VEC2"
    },
    {
      "bufferView": 0,
      "byteOffset": 2105052,
      "componentType": 5125,
      "count": 174168,
      "type": "SCALAR"
    },
    {
      "bufferView": 2,
      "byteOffset": 6291096,
      "componentType": 5126,
      "count": 65534,
      "max": [
        143.9493865966797,
        91.53155517578125,
        20.15357780456543
      ],
      "min": [
        -125.05781555175781,
        -75.5889663696289,
        -1.8853521347045898
      ],
      "type": "VEC3"
    },
    {
      "bufferView": 2,
      "byteOffset": 7077504,
      "componentType": 5126,
      "count": 65534,
      "max": [
        0.9999992251396179,
        0.9999995827674866,
        0.9999997615814209
      ],
      "min": [
        -0.9999996423721313,
        -1.0,
        -1.0
      ],
      "type": "VEC3"
    },
    {
      "bufferView": 1,
      "byteOffset": 2097032,
      "componentType": 5126,
      "count": 65534,
      "max": [
        0.9996259808540344,
        0.6812742948532104
      ],
      "min": [
        0.0001220703125,
        0.0107358293607831
      ],
      "type": "VEC2"
    },
    {
      "bufferView": 0,
      "byteOffset": 2801724,
      "componentType": 5125,
      "count": 161625,
      "type": "SCALAR"
    },
    {
      "bufferView": 2,
      "byteOffset": 7863912,
      "componentType": 5126,
      "count": 20392,
      "max": [
        145.3831024169922,
        88.99270629882813,
        16.51106834411621
      ],
      "min": [
        -66.7765121459961,
        -49.85543441772461,
        -2.0198469161987305
      ],
      "type": "VEC3"
    },
    {
      "bufferView": 2,
      "byteOffset": 8108616,
      "componentType": 5126,
      "count": 20392,
      "max": [
        0.999999463558197,
        0.9999996423721313,
        0.9999997019767761
      ],
      "min": [
        -0.9999954700469971,
        -1.0,
        -1.0
      ],
      "type": "VEC3"
    },
    {
      "bufferView": 1,
      "byteOffset": 2621304,
      "componentType": 5126,
      "count": 20392,
      "max": [
        0.9995648860931396,
        0.7420653104782104
      ],
      "min": [
        0.0001220703125,
        0.015020926482975483
      ],
      "type": "VEC2"
    },
    {
      "bufferView": 0,
      "byteOffset": 3448224,
      "componentType": 5125,
      "count": 47655,
      "type": "SCALAR"
    }
  ],
  "asset": {
    "extras": {
      "author": "SKEIRON (https://sketchfab.com/skeiron)",
      "license": "CC-BY-4.0 (http://creativecommons.org/licenses/by/4.0/)",
      "source": "https://sketchfab.com/3d-models/avrora-b7739e1f499541f0b65d398e3ee47f7f",
      "title": "Avrora"
    },
    "generator": "Sketchfab-15.49.0",
    "version": "2.0"
  },
  "bufferViews": [
    {
      "buffer": 0,
      "byteLength": 3638844,
      "name": "floatBufferViews",
      "target": 34963
    },
    {
      "buffer": 0,
      "byteLength": 2784440,
      "byteOffset": 3638844,
      "byteStride": 8,
      "name": "floatBufferViews",
      "target": 34962
    },
    {
      "buffer": 0,
      "byteLength": 8353320,
      "byteOffset": 6423284,
      "byteStride": 12,
      "name": "floatBufferViews",
      "target": 34962
    }
  ],
  "buffers": [
    {
      "byteLength": 14776604,
      "uri": "scene.bin"
    }
  ],
  "extensionsUsed": [
    "KHR_materials_unlit"
  ],
  "images": [
    {
      "uri": "textures/tex_u1_v1_baseColor.jpeg"
    }
  ],
  "materials": [
    {
      "doubleSided": true,
      "extensions": {
        "KHR_materials_unlit": {}
      },
      "name": "tex_u1_v1",
      "pbrMetallicRoughness": {
        "baseColorTexture": {
          "index": 0
        },
        "metallicFactor": 0.0
      }
    }
  ],
  "meshes": [
    {
      "name": "Object_0",
      "primitives": [
        {
          "attributes": {
            "NORMAL": 1,
            "POSITION": 0,
            "TEXCOORD_0": 2
          },
          "indices": 3,
          "material": 0,
          "mode": 4
        }
      ]
    },
    {
      "name": "Object_1",
      "primitives": [
        {
          "attributes": {
            "NORMAL": 5,
            "POSITION": 4,
            "TEXCOORD_0": 6
          },
          "indices": 7,
          "material": 0,
          "mode": 4
        }
      ]
    },
    {
      "name": "Object_2",
      "primitives": [
        {
          "attributes": {
            "NORMAL": 9,
            "POSITION": 8,
            "TEXCOORD_0": 10
          },
          "indices": 11,
          "material": 0,
          "mode": 4
        }
      ]
    },
    {
      "name": "Object_3",
      "primitives": [
        {
          "attributes": {
            "NORMAL": 13,
            "POSITION": 12,
            "TEXCOORD_0": 14
          },
          "indices": 15,
          "material": 0,
          "mode": 4
        }
      ]
    },
    {
      "name": "Object_4",
      "primitives": [
        {
          "attributes": {
            "NORMAL": 17,
            "POSITION": 16,
            "TEXCOORD_0": 18
          },
          "indices": 19,
          "material": 0,
          "mode": 4
        }
      ]
    },
    {
      "name": "Object_5",
      "primitives": [
        {
          "attributes": {
            "NORMAL": 21,
            "POSITION": 20,
            "TEXCOORD_0": 22
          },
          "indices": 23,
          "material": 0,
          "mode": 4
        }
      ]
    }
  ],
  "nodes": [
    {
      "children": [
        1
      ],
      "matrix": [
        1.0,
        0.0,
        0.0,
        0.0,
        0.0,
        2.220446049250313e-16,
        -1.0,
        0.0,
        0.0,
        1.0,
        2.220446049250313e-16,
        0.0,
        0.0,
        0.0,
        0.0,
        1.0
      ],
      "name": "Sketchfab_model"
    },
    {
      "children": [
        2,
        3,
        4,
        5,
        6,
        7
      ],
      "name": "model.obj.cleaner.materialmerger.gles"
    },
    {
      "mesh": 0,
      "name": "Object_2"
    },
    {
      "mesh": 1,
      "name": "Object_3"
    },
    {
      "mesh": 2,
      "name": "Object_4"
    },
    {
      "mesh": 3,
      "name": "Object_5"
    },
    {
      "mesh": 4,
      "name": "Object_6"
    },
    {
      "mesh": 5,
      "name": "Object_7"
    }
  ],
  "samplers": [
    {
      "magFilter": 9729,
      "minFilter": 9987,
      "wrapS": 10497,
      "wrapT": 10497
    }
  ],
  "scene": 0,
  "scenes": [
    {
      "name": "Sketchfab_Scene",
      "nodes": [
        0
      ]
    }
  ],
  "textures": [
    {
      "sampler": 0,
      "source": 0
    }
  ]
}
